<svg xmlns="http://www.w3.org/2000/svg" viewBox="0 0 511.999 457.069"><defs><style>.a{fill:#44c868;}.b{fill:#4ce166;}.c{fill:#ffdb56;}.d{fill:#a8eefc;}.e{fill:#ffbb24;}.f{fill:#ff385b;}.g{fill:#e52648;}.h{fill:#1ea4e9;}</style></defs><g transform="translate(0 -27.465)"><path class="a" d="M511.879,475.685,471.655,254.074a7.506,7.506,0,0,0-3.739-5.221l-101.242-56.31a7.488,7.488,0,0,0-4.234-.911L380.859,429.24l-.617.276,121.164,54.357a7.514,7.514,0,0,0,10.473-8.188Z"/><path class="a" d="M256,246.375,152.455,192.444a7.491,7.491,0,0,0-3.972-.82,7.756,7.756,0,0,1,1.078.008L131.142,429.24l121.781,54.634a7.53,7.53,0,0,0,3.077.659h0Z"/><path class="b" d="M149.56,191.633a7.5,7.5,0,0,0-4.234.91L44.083,248.853a7.5,7.5,0,0,0-3.739,5.221L.121,475.685a7.514,7.514,0,0,0,10.472,8.189l120.5-54.061Z"/><path class="b" d="M362.439,191.628a7.492,7.492,0,0,0-2.894.818L256,246.376V484.534h0a7.51,7.51,0,0,0,3.077-.659l121.781-54.634Z"/><path class="c" d="M28.154,321.233l-8.171,45.019,120.994-63.906,2.809-36.239.466-6.01Z"/><path class="d" d="M142.066,288.294l-1.089,14.052L19.983,366.252.121,475.685a7.514,7.514,0,0,0,10.472,8.189l120.5-54.061,10.969-141.519Z"/><path class="e" d="M256.03,276.08,144.252,260.1l-3.275,42.249L256,477.025V413.507L187.363,305.429l68.667,8.213Z"/><path class="e" d="M459.946,244.421,411.311,217.37l-46.042,10.758.576,7.436,2.274,29.334Z"/><path class="c" d="M372.2,317.576l-4.36-56.249h0l-2.573-33.2L256.03,276.08v37.562l71.356-31.03Z"/><path class="e" d="M511.879,475.685l-10.1-55.666L368.119,264.9l4.084,52.678L509.273,482.8A7.5,7.5,0,0,0,511.879,475.685Z"/><path class="f" d="M256.481,27.465A105.2,105.2,0,0,0,151.361,132.5c0,35.826,17.009,74.29,50.556,114.322a359.281,359.281,0,0,0,49.966,49.105,7.521,7.521,0,0,0,9.2,0,359.343,359.343,0,0,0,49.966-49.1c33.547-40.032,50.556-78.5,50.556-114.322A105.2,105.2,0,0,0,256.481,27.465ZM295.411,132.5a38.93,38.93,0,1,1-38.93-38.9A38.915,38.915,0,0,1,295.411,132.5Z"/><path class="g" d="M256.481,27.465a105.709,105.709,0,0,0-13.559.872A105.221,105.221,0,0,1,334.484,132.5c0,35.826-17.009,74.29-50.556,114.322a375.949,375.949,0,0,1-41.005,41.669c5.254,4.552,8.6,7.154,8.96,7.436a7.521,7.521,0,0,0,9.2,0,359.343,359.343,0,0,0,49.966-49.1c33.547-40.032,50.556-78.5,50.556-114.322A105.2,105.2,0,0,0,256.481,27.465Z"/><path class="c" d="M259.078,483.874l45.285-20.316L256,413.507v71.026h0A7.5,7.5,0,0,0,259.078,483.874Z"/><path class="h" d="M471.654,254.074a7.506,7.506,0,0,0-3.739-5.221l-7.97-4.433L368.118,264.9h0L501.774,420.018Z"/><path class="h" d="M256,484.533h0v-7.508L140.977,302.346,131.14,429.241l121.781,54.634A7.513,7.513,0,0,0,256,484.533Z"/></g></svg>