<svg xmlns="http://www.w3.org/2000/svg" viewBox="0 0 968.982 369.425"><defs><style>.a{fill:#fff;}.b{fill:#123247;}</style></defs><g transform="translate(-224 1454.742)"><path class="a" d="M721.033,119.194q-14.847,0-24.122-6.051-8.651-5.8-8.65-14.224a11.7,11.7,0,0,1,3.389-8.838,16.181,16.181,0,0,1,8.983-4.159c-4.865-2.953-7.3-6.634-7.3-11a10.1,10.1,0,0,1,2.724-7.236,15.134,15.134,0,0,1,6.966-4.222,19.442,19.442,0,0,1-7.3-15.471,19.257,19.257,0,0,1,7.653-15.825,26.911,26.911,0,0,1,17.01-5.864,32.58,32.58,0,0,1,16.033,3.6,16.264,16.264,0,0,1,6.052-11.375A18.53,18.53,0,0,1,754.721,14.2l-.749,13.974q-10.626,0-11,7.05a18.331,18.331,0,0,1,4.575,11.624,21.458,21.458,0,0,1-2.079,9.961,20.05,20.05,0,0,1-5.7,6.737,28.013,28.013,0,0,1-18.049,5.926A30.956,30.956,0,0,1,710.7,67.623a5.948,5.948,0,0,0-4.866,5.99c0,3.7,3.119,5.552,9.4,5.552h20.15q20.524,0,20.525,14.348a20.068,20.068,0,0,1-2.413,9.462,25.067,25.067,0,0,1-6.987,8.318,40.218,40.218,0,0,1-23.977,7.93Q721.782,119.222,721.033,119.194Zm8.339-12.893a21.24,21.24,0,0,0,6.363-2.974,10.646,10.646,0,0,0,5.552-8.9,4.721,4.721,0,0,0-1.539-3.659,6.49,6.49,0,0,0-4.513-1.415l-21.085.084q-11.645.5-11.624,8.775c0,2.807,1.622,5.053,4.886,6.737a24.592,24.592,0,0,0,11.562,2.454A39.31,39.31,0,0,0,729.373,106.3Zm.914-50.136a12.136,12.136,0,0,0,2.787-8.341,11.892,11.892,0,0,0-2.787-8.129,10.712,10.712,0,0,0-8.464-3.161A10.584,10.584,0,0,0,710.2,47.848a11.671,11.671,0,0,0,2.952,8.319,11.252,11.252,0,0,0,8.672,3.223A10.6,10.6,0,0,0,730.287,56.165Zm-262.1,63.029q-14.847,0-24.122-6.051-8.672-5.8-8.672-14.224a11.707,11.707,0,0,1,3.41-8.838,16.178,16.178,0,0,1,8.963-4.159c-4.866-2.953-7.3-6.634-7.3-11a10.188,10.188,0,0,1,2.723-7.236,15.142,15.142,0,0,1,7.008-4.222,19.443,19.443,0,0,1-7.3-15.471,19.213,19.213,0,0,1,7.673-15.825,26.9,26.9,0,0,1,17.01-5.822,32.5,32.5,0,0,1,16.012,3.6,16.283,16.283,0,0,1,6.071-11.375A18.453,18.453,0,0,1,501.9,14.243l-.728,13.974q-10.626,0-11.021,7.05a18.382,18.382,0,0,1,4.6,11.624,21.2,21.2,0,0,1-2.079,9.96,19.772,19.772,0,0,1-5.677,6.737,28.075,28.075,0,0,1-18.071,5.926,30.938,30.938,0,0,1-11-1.85,5.947,5.947,0,0,0-4.949,5.947q0,5.551,9.4,5.552H482.54q20.524,0,20.525,14.348a20.329,20.329,0,0,1-2.412,9.462,25.068,25.068,0,0,1-6.988,8.318,40.253,40.253,0,0,1-23.987,7.929Q468.935,119.222,468.192,119.194Zm8.38-12.893a20.964,20.964,0,0,0,6.363-2.974,10.624,10.624,0,0,0,5.573-8.9,4.782,4.782,0,0,0-1.538-3.66,6.535,6.535,0,0,0-4.513-1.414l-21.107.084q-11.645.5-11.645,8.775c0,2.807,1.643,5.053,4.887,6.737a24.664,24.664,0,0,0,11.583,2.454A39.151,39.151,0,0,0,476.572,106.3Zm.915-50.136a12.146,12.146,0,0,0,2.787-8.341,11.9,11.9,0,0,0-2.787-8.129A10.732,10.732,0,0,0,469,36.535a10.606,10.606,0,0,0-11.624,11.312,11.664,11.664,0,0,0,2.974,8.318A11.207,11.207,0,0,0,469,59.389,10.626,10.626,0,0,0,477.487,56.165ZM145.9,89.812c-7.736,0-13.766-1.893-18.049-5.7a17.881,17.881,0,0,1-5.926-13.787,14.7,14.7,0,0,1,6.592-12.83c4.367-3.036,10.335-4.554,17.946-4.554a69.73,69.73,0,0,1,16.636,2.35V49.366a14.27,14.27,0,0,0-2.537-9.337,10.231,10.231,0,0,0-8.318-3.036,14.682,14.682,0,0,0-8.838,2.287,7.569,7.569,0,0,0-3.182,6.488h-15.95q0-10.252,7.237-14.827c4.8-3.056,11.561-4.6,20.212-4.6q18.549,0,24,13a27.441,27.441,0,0,1,1.85,10.523v38.22H164.84l-1.123-8.048a19.341,19.341,0,0,1-16.819,9.8Q146.4,89.838,145.9,89.812Zm-8.276-19.3a7.425,7.425,0,0,0,2.6,5.7,12.872,12.872,0,0,0,8.713,2.412,13.206,13.206,0,0,0,10-3.972,14.809,14.809,0,0,0,4.159-10.085,52.549,52.549,0,0,0-13.6-1.976Q137.619,62.591,137.619,70.514Zm-54.087,19.3A26.076,26.076,0,0,1,63.611,81.14a32.81,32.81,0,0,1-8.318-23.124q0-14.557,8.318-23.249a26.18,26.18,0,0,1,20-8.463,23.288,23.288,0,0,1,19.4,8.8,27.185,27.185,0,0,1,4.658,9.191,33.9,33.9,0,0,1,1.538,9.525,54.975,54.975,0,0,1-.5,7.8H69.87a20.936,20.936,0,0,0,3.6,11.874,11.767,11.767,0,0,0,10.147,4.575c6.009,0,9.607-2.641,10.751-7.923h14.66a21.56,21.56,0,0,1-8.318,14.224A27.2,27.2,0,0,1,84.36,89.825Q83.946,89.825,83.532,89.812Zm-9.44-47.745a18.112,18.112,0,0,0-4.159,10.4H95.551q0-9.794-6.238-13.122a11.943,11.943,0,0,0-5.574-1.351v.062c-.223-.012-.446-.019-.668-.019A12.019,12.019,0,0,0,74.092,42.067ZM869.279,89.749q-11.977-.02-19.318-5.219a17.467,17.467,0,0,1-7.423-14.785l13.6.021q.248,8.547,12.477,8.547a13.561,13.561,0,0,0,7.736-2.1,5.74,5.74,0,0,0,3.015-4.762,5.114,5.114,0,0,0-1.85-4.159,18.728,18.728,0,0,0-5.8-2.724l-13.121-4.7q-14.556-5.053-14.557-16.636a14.2,14.2,0,0,1,6.862-12.29c4.575-3.1,10.73-4.658,18.424-4.658s13.662,1.706,17.821,5.074a16.509,16.509,0,0,1,6.488,12.748H879.9a6.071,6.071,0,0,0-2.849-4.7,13.238,13.238,0,0,0-7.423-1.726,12.481,12.481,0,0,0-7.465,1.913,5.383,5.383,0,0,0-2.661,4.388q0,4.346,7.3,6.425l14.224,5.323a28.1,28.1,0,0,1,10.813,6.01A12.473,12.473,0,0,1,895.6,71.2a15.889,15.889,0,0,1-7.049,12.851q-7.272,5.7-19.187,5.7Zm-60.638-1.6v-60.3H823.2v60.3Zm-480.023,0v-60.3h14.557v60.3Zm625.774-.062V52.943a14.14,14.14,0,0,0-3.182-10,11.832,11.832,0,0,0-9.025-3.411,12.354,12.354,0,0,0-9.961,5.2q-4.158,5.177-4.388,15.575V88.086H913.28V3.223h14.556l-.083,34.519q6.238-11.374,18.049-11.395,11.884,0,17.51,7.3a30.842,30.842,0,0,1,5.635,19.3V88.086Zm-184.595,0V3.223h14.557V88.086Zm-149.015,0V27.968H633.53l1.6,10.376A19.922,19.922,0,0,1,654.158,26.3q11.146,0,16.761,7.3c3.764,4.866,5.635,11.313,5.635,19.3V88.044H662v-35.1a14.14,14.14,0,0,0-3.265-10,11.811,11.811,0,0,0-9.045-3.473,12.48,12.48,0,0,0-9.961,5.2q-4.159,5.179-4.388,15.575V88.086Zm-72.615,0V7.8H599.78V20.42H562.766V41.568h34.748V54.191H562.766V75.339H599.78V88.086ZM368,88.086V27.968h12.726l1.58,10.376a19.88,19.88,0,0,1,19.048-12.039c7.423,0,13,2.433,16.76,7.3s5.615,11.313,5.615,19.3V88.044H409.176v-35.1a14.139,14.139,0,0,0-3.244-10,11.835,11.835,0,0,0-9.025-3.411,12.352,12.352,0,0,0-9.96,5.2q-4.159,5.177-4.387,15.575V88.086Zm-117.635,0V27.968h12.748l1.559,10.376A19.924,19.924,0,0,1,283.7,26.3q11.146,0,16.76,7.3c3.764,4.866,5.636,11.313,5.636,19.3V88.044H291.541v-35.1a14.136,14.136,0,0,0-3.223-10,11.875,11.875,0,0,0-9.046-3.411,12.477,12.477,0,0,0-9.96,5.2c-2.745,3.452-4.159,8.65-4.387,15.575V88.086Zm-51.4,0v-60.3H213.52l-.041,12.061q5.469-13.018,16.323-13a21.068,21.068,0,0,1,5.324.874l-.249,14.556a32.18,32.18,0,0,0-6.8-.749q-14.556,0-14.556,20.171V88.086ZM0,88.086V7.8H14.557L14.6,75.339H47.62V88.086ZM733.073,47.806v.041Zm-252.8,0v.041ZM329.242,14.784a8.316,8.316,0,0,1-2.35-6.238,8.318,8.318,0,0,1,2.35-6.239A9.126,9.126,0,0,1,335.917.021a9.231,9.231,0,0,1,6.633,2.287,8.194,8.194,0,0,1,2.413,6.239,8.193,8.193,0,0,1-2.413,6.238,9.232,9.232,0,0,1-6.633,2.288q-.3.02-.608.02A9.131,9.131,0,0,1,329.242,14.784Zm480.024,0a8.312,8.312,0,0,1-2.35-6.238,8.314,8.314,0,0,1,2.35-6.239,10.792,10.792,0,0,1,13.288,0,8.112,8.112,0,0,1,2.412,6.239,8.11,8.11,0,0,1-2.412,6.238,10.792,10.792,0,0,1-13.288,0Z" transform="translate(224 -1204.539)"/><g transform="translate(579.7 -226.601)"><rect class="a" width="189.984" height="189.984" rx="6.05" transform="translate(34 -1228.141)"/><path class="b" d="M106.662,106.263a8.624,8.624,0,1,1,8.624,8.624A8.624,8.624,0,0,1,106.662,106.263ZM0,114.887V0H19.668V114.887Zm67.419-.071a35.244,35.244,0,0,1-26.978-11.749Q29.069,90.918,29.069,71.837q0-19.552,11.209-31.466a35.415,35.415,0,0,1,26.978-11.4c11.279,0,20.021,3.972,26.3,11.891a37.751,37.751,0,0,1,6.32,12.384,45.944,45.944,0,0,1,2.045,12.9,75.093,75.093,0,0,1-.682,10.552H48.714a28.192,28.192,0,0,0,4.841,16,15.906,15.906,0,0,0,13.747,6.2q12.2,0,14.569-10.716h20.044a29.092,29.092,0,0,1-11.233,19.246,36.776,36.776,0,0,1-22.116,7.4Q67.993,114.834,67.419,114.816ZM54.4,50.147a24.417,24.417,0,0,0-5.522,14.1H83.539q0-13.254-8.365-17.766a16.6,16.6,0,0,0-7.707-1.762q-.419-.021-.836-.021A16.452,16.452,0,0,0,54.4,50.147Z" transform="translate(67.037 -1190.593)"/></g></g></svg>